<mxfile host="app.diagrams.net" agent="Mozilla/5.0 (X11; Linux x86_64) AppleWebKit/537.36 (KHTML, like Gecko) Chrome/129.0.0.0 Safari/537.36" version="24.7.17" pages="2">
  <diagram name="Page-1" id="WWjf1nk2vu-T592nEqpy">
    <mxGraphModel dx="2087" dy="1313" grid="1" gridSize="10" guides="1" tooltips="1" connect="1" arrows="1" fold="1" page="0" pageScale="1" pageWidth="850" pageHeight="1100" math="0" shadow="0">
      <root>
        <mxCell id="0" />
        <mxCell id="1" parent="0" />
        <mxCell id="tSnbwrxk9L4w9iT0h2Ao-3" value="" style="group" parent="1" vertex="1" connectable="0">
          <mxGeometry x="-130" y="20" width="287" height="850" as="geometry" />
        </mxCell>
        <mxCell id="j4HEFnZdlxxGRdM0LMkN-6" style="edgeStyle=orthogonalEdgeStyle;rounded=0;orthogonalLoop=1;jettySize=auto;html=1;exitX=0.5;exitY=1;exitDx=0;exitDy=0;" parent="tSnbwrxk9L4w9iT0h2Ao-3" source="j4HEFnZdlxxGRdM0LMkN-3" target="j4HEFnZdlxxGRdM0LMkN-5" edge="1">
          <mxGeometry relative="1" as="geometry" />
        </mxCell>
        <mxCell id="j4HEFnZdlxxGRdM0LMkN-7" value="Yes" style="edgeLabel;html=1;align=center;verticalAlign=middle;resizable=0;points=[];" parent="j4HEFnZdlxxGRdM0LMkN-6" vertex="1" connectable="0">
          <mxGeometry x="-0.4568" y="2" relative="1" as="geometry">
            <mxPoint as="offset" />
          </mxGeometry>
        </mxCell>
        <mxCell id="j4HEFnZdlxxGRdM0LMkN-8" style="edgeStyle=orthogonalEdgeStyle;rounded=0;orthogonalLoop=1;jettySize=auto;html=1;exitX=1;exitY=0.5;exitDx=0;exitDy=0;" parent="tSnbwrxk9L4w9iT0h2Ao-3" source="j4HEFnZdlxxGRdM0LMkN-3" target="j4HEFnZdlxxGRdM0LMkN-9" edge="1">
          <mxGeometry relative="1" as="geometry">
            <mxPoint x="177" y="65" as="targetPoint" />
          </mxGeometry>
        </mxCell>
        <mxCell id="j4HEFnZdlxxGRdM0LMkN-10" value="No" style="edgeLabel;html=1;align=center;verticalAlign=middle;resizable=0;points=[];" parent="j4HEFnZdlxxGRdM0LMkN-8" vertex="1" connectable="0">
          <mxGeometry x="0.1667" y="-2" relative="1" as="geometry">
            <mxPoint as="offset" />
          </mxGeometry>
        </mxCell>
        <mxCell id="j4HEFnZdlxxGRdM0LMkN-3" value="Is there a mouse button down event?" style="rhombus;whiteSpace=wrap;html=1;" parent="tSnbwrxk9L4w9iT0h2Ao-3" vertex="1">
          <mxGeometry width="125" height="130" as="geometry" />
        </mxCell>
        <mxCell id="j4HEFnZdlxxGRdM0LMkN-16" style="edgeStyle=orthogonalEdgeStyle;rounded=0;orthogonalLoop=1;jettySize=auto;html=1;exitX=0.5;exitY=1;exitDx=0;exitDy=0;entryX=0.5;entryY=0;entryDx=0;entryDy=0;" parent="tSnbwrxk9L4w9iT0h2Ao-3" source="j4HEFnZdlxxGRdM0LMkN-5" target="LYYLvM-1oNf_IRfmcH3n-3" edge="1">
          <mxGeometry relative="1" as="geometry" />
        </mxCell>
        <mxCell id="j4HEFnZdlxxGRdM0LMkN-5" value="Loop over pieces in the piece group" style="rounded=0;whiteSpace=wrap;html=1;" parent="tSnbwrxk9L4w9iT0h2Ao-3" vertex="1">
          <mxGeometry x="2" y="170" width="120" height="60" as="geometry" />
        </mxCell>
        <mxCell id="j4HEFnZdlxxGRdM0LMkN-9" value="Continue through the main game loop" style="rounded=0;whiteSpace=wrap;html=1;" parent="tSnbwrxk9L4w9iT0h2Ao-3" vertex="1">
          <mxGeometry x="167" y="35" width="120" height="60" as="geometry" />
        </mxCell>
        <mxCell id="LYYLvM-1oNf_IRfmcH3n-2" style="edgeStyle=orthogonalEdgeStyle;rounded=0;orthogonalLoop=1;jettySize=auto;html=1;exitX=0.5;exitY=1;exitDx=0;exitDy=0;" parent="tSnbwrxk9L4w9iT0h2Ao-3" source="j4HEFnZdlxxGRdM0LMkN-12" target="LYYLvM-1oNf_IRfmcH3n-1" edge="1">
          <mxGeometry relative="1" as="geometry" />
        </mxCell>
        <mxCell id="LYYLvM-1oNf_IRfmcH3n-13" value="&lt;div&gt;Yes&lt;/div&gt;" style="edgeLabel;html=1;align=center;verticalAlign=middle;resizable=0;points=[];" parent="LYYLvM-1oNf_IRfmcH3n-2" vertex="1" connectable="0">
          <mxGeometry x="-0.2486" y="3" relative="1" as="geometry">
            <mxPoint as="offset" />
          </mxGeometry>
        </mxCell>
        <mxCell id="LYYLvM-1oNf_IRfmcH3n-10" style="edgeStyle=orthogonalEdgeStyle;rounded=0;orthogonalLoop=1;jettySize=auto;html=1;exitX=0;exitY=0.5;exitDx=0;exitDy=0;entryX=0;entryY=0.5;entryDx=0;entryDy=0;" parent="tSnbwrxk9L4w9iT0h2Ao-3" source="j4HEFnZdlxxGRdM0LMkN-12" target="LYYLvM-1oNf_IRfmcH3n-3" edge="1">
          <mxGeometry relative="1" as="geometry" />
        </mxCell>
        <mxCell id="LYYLvM-1oNf_IRfmcH3n-12" value="No" style="edgeLabel;html=1;align=center;verticalAlign=middle;resizable=0;points=[];" parent="LYYLvM-1oNf_IRfmcH3n-10" vertex="1" connectable="0">
          <mxGeometry x="-0.2533" y="2" relative="1" as="geometry">
            <mxPoint as="offset" />
          </mxGeometry>
        </mxCell>
        <mxCell id="j4HEFnZdlxxGRdM0LMkN-12" value="Does the rectangle of the piece collide with the mouse position?" style="rhombus;whiteSpace=wrap;html=1;" parent="tSnbwrxk9L4w9iT0h2Ao-3" vertex="1">
          <mxGeometry y="530" width="125" height="130" as="geometry" />
        </mxCell>
        <mxCell id="tSnbwrxk9L4w9iT0h2Ao-2" style="edgeStyle=orthogonalEdgeStyle;rounded=0;orthogonalLoop=1;jettySize=auto;html=1;exitX=0.5;exitY=1;exitDx=0;exitDy=0;entryX=0.5;entryY=0;entryDx=0;entryDy=0;" parent="tSnbwrxk9L4w9iT0h2Ao-3" source="LYYLvM-1oNf_IRfmcH3n-1" target="tSnbwrxk9L4w9iT0h2Ao-1" edge="1">
          <mxGeometry relative="1" as="geometry" />
        </mxCell>
        <mxCell id="LYYLvM-1oNf_IRfmcH3n-1" value="drag = True" style="rounded=0;whiteSpace=wrap;html=1;" parent="tSnbwrxk9L4w9iT0h2Ao-3" vertex="1">
          <mxGeometry x="2.5" y="700" width="120" height="60" as="geometry" />
        </mxCell>
        <mxCell id="LYYLvM-1oNf_IRfmcH3n-5" style="edgeStyle=orthogonalEdgeStyle;rounded=0;orthogonalLoop=1;jettySize=auto;html=1;exitX=1;exitY=0.5;exitDx=0;exitDy=0;entryX=0.5;entryY=1;entryDx=0;entryDy=0;" parent="tSnbwrxk9L4w9iT0h2Ao-3" source="LYYLvM-1oNf_IRfmcH3n-3" target="j4HEFnZdlxxGRdM0LMkN-9" edge="1">
          <mxGeometry relative="1" as="geometry" />
        </mxCell>
        <mxCell id="LYYLvM-1oNf_IRfmcH3n-6" value="Yes" style="edgeLabel;html=1;align=center;verticalAlign=middle;resizable=0;points=[];" parent="LYYLvM-1oNf_IRfmcH3n-5" vertex="1" connectable="0">
          <mxGeometry x="-0.6784" y="1" relative="1" as="geometry">
            <mxPoint as="offset" />
          </mxGeometry>
        </mxCell>
        <mxCell id="LYYLvM-1oNf_IRfmcH3n-7" style="edgeStyle=orthogonalEdgeStyle;rounded=0;orthogonalLoop=1;jettySize=auto;html=1;exitX=0.5;exitY=1;exitDx=0;exitDy=0;" parent="tSnbwrxk9L4w9iT0h2Ao-3" source="LYYLvM-1oNf_IRfmcH3n-3" target="LYYLvM-1oNf_IRfmcH3n-8" edge="1">
          <mxGeometry relative="1" as="geometry">
            <mxPoint x="63" y="420" as="targetPoint" />
          </mxGeometry>
        </mxCell>
        <mxCell id="LYYLvM-1oNf_IRfmcH3n-11" value="No" style="edgeLabel;html=1;align=center;verticalAlign=middle;resizable=0;points=[];" parent="LYYLvM-1oNf_IRfmcH3n-7" vertex="1" connectable="0">
          <mxGeometry x="-0.2099" y="-1" relative="1" as="geometry">
            <mxPoint as="offset" />
          </mxGeometry>
        </mxCell>
        <mxCell id="LYYLvM-1oNf_IRfmcH3n-3" value="Have all the pieces been looped over?" style="rhombus;whiteSpace=wrap;html=1;" parent="tSnbwrxk9L4w9iT0h2Ao-3" vertex="1">
          <mxGeometry y="270" width="125" height="130" as="geometry" />
        </mxCell>
        <mxCell id="LYYLvM-1oNf_IRfmcH3n-9" style="edgeStyle=orthogonalEdgeStyle;rounded=0;orthogonalLoop=1;jettySize=auto;html=1;exitX=0.5;exitY=1;exitDx=0;exitDy=0;" parent="tSnbwrxk9L4w9iT0h2Ao-3" source="LYYLvM-1oNf_IRfmcH3n-8" target="j4HEFnZdlxxGRdM0LMkN-12" edge="1">
          <mxGeometry relative="1" as="geometry" />
        </mxCell>
        <mxCell id="LYYLvM-1oNf_IRfmcH3n-8" value="Loop over the next piece" style="rounded=0;whiteSpace=wrap;html=1;" parent="tSnbwrxk9L4w9iT0h2Ao-3" vertex="1">
          <mxGeometry x="2" y="440" width="120" height="60" as="geometry" />
        </mxCell>
        <mxCell id="zBZ0H6l6l-4x_m-4qMEd-57" style="edgeStyle=orthogonalEdgeStyle;rounded=0;orthogonalLoop=1;jettySize=auto;html=1;exitX=0.5;exitY=1;exitDx=0;exitDy=0;" edge="1" parent="tSnbwrxk9L4w9iT0h2Ao-3" source="tSnbwrxk9L4w9iT0h2Ao-1">
          <mxGeometry relative="1" as="geometry">
            <mxPoint x="63" y="900" as="targetPoint" />
          </mxGeometry>
        </mxCell>
        <mxCell id="tSnbwrxk9L4w9iT0h2Ao-1" value="old_square = square of selected piece" style="rounded=0;whiteSpace=wrap;html=1;" parent="tSnbwrxk9L4w9iT0h2Ao-3" vertex="1">
          <mxGeometry x="3" y="790" width="120" height="60" as="geometry" />
        </mxCell>
        <mxCell id="tSnbwrxk9L4w9iT0h2Ao-8" style="edgeStyle=orthogonalEdgeStyle;rounded=0;orthogonalLoop=1;jettySize=auto;html=1;exitX=1;exitY=0.5;exitDx=0;exitDy=0;entryX=0;entryY=0.5;entryDx=0;entryDy=0;" parent="1" source="tSnbwrxk9L4w9iT0h2Ao-5" target="tSnbwrxk9L4w9iT0h2Ao-7" edge="1">
          <mxGeometry relative="1" as="geometry" />
        </mxCell>
        <mxCell id="tSnbwrxk9L4w9iT0h2Ao-9" value="No" style="edgeLabel;html=1;align=center;verticalAlign=middle;resizable=0;points=[];" parent="tSnbwrxk9L4w9iT0h2Ao-8" vertex="1" connectable="0">
          <mxGeometry x="-0.2739" relative="1" as="geometry">
            <mxPoint as="offset" />
          </mxGeometry>
        </mxCell>
        <mxCell id="tSnbwrxk9L4w9iT0h2Ao-11" style="edgeStyle=orthogonalEdgeStyle;rounded=0;orthogonalLoop=1;jettySize=auto;html=1;exitX=0.5;exitY=1;exitDx=0;exitDy=0;" parent="1" source="tSnbwrxk9L4w9iT0h2Ao-5" target="tSnbwrxk9L4w9iT0h2Ao-10" edge="1">
          <mxGeometry relative="1" as="geometry" />
        </mxCell>
        <mxCell id="tSnbwrxk9L4w9iT0h2Ao-17" value="Yes" style="edgeLabel;html=1;align=center;verticalAlign=middle;resizable=0;points=[];" parent="tSnbwrxk9L4w9iT0h2Ao-11" vertex="1" connectable="0">
          <mxGeometry x="-0.7202" y="-4" relative="1" as="geometry">
            <mxPoint as="offset" />
          </mxGeometry>
        </mxCell>
        <mxCell id="tSnbwrxk9L4w9iT0h2Ao-5" value="Is drag set to True?" style="rhombus;whiteSpace=wrap;html=1;" parent="1" vertex="1">
          <mxGeometry x="360" y="30" width="125" height="130" as="geometry" />
        </mxCell>
        <mxCell id="tSnbwrxk9L4w9iT0h2Ao-7" value="Continue through the main game loop" style="rounded=0;whiteSpace=wrap;html=1;" parent="1" vertex="1">
          <mxGeometry x="520" y="65" width="120" height="60" as="geometry" />
        </mxCell>
        <mxCell id="tSnbwrxk9L4w9iT0h2Ao-14" style="edgeStyle=orthogonalEdgeStyle;rounded=0;orthogonalLoop=1;jettySize=auto;html=1;exitX=0.5;exitY=1;exitDx=0;exitDy=0;entryX=0.5;entryY=0;entryDx=0;entryDy=0;" parent="1" source="tSnbwrxk9L4w9iT0h2Ao-10" target="tSnbwrxk9L4w9iT0h2Ao-13" edge="1">
          <mxGeometry relative="1" as="geometry" />
        </mxCell>
        <mxCell id="tSnbwrxk9L4w9iT0h2Ao-10" value="selected_piece position = mouse_position" style="rounded=0;whiteSpace=wrap;html=1;" parent="1" vertex="1">
          <mxGeometry x="362.5" y="190" width="120" height="60" as="geometry" />
        </mxCell>
        <mxCell id="tSnbwrxk9L4w9iT0h2Ao-15" style="edgeStyle=orthogonalEdgeStyle;rounded=0;orthogonalLoop=1;jettySize=auto;html=1;exitX=0;exitY=0.5;exitDx=0;exitDy=0;entryX=0;entryY=0.5;entryDx=0;entryDy=0;" parent="1" source="tSnbwrxk9L4w9iT0h2Ao-13" target="tSnbwrxk9L4w9iT0h2Ao-10" edge="1">
          <mxGeometry relative="1" as="geometry" />
        </mxCell>
        <mxCell id="tSnbwrxk9L4w9iT0h2Ao-16" value="No" style="edgeLabel;html=1;align=center;verticalAlign=middle;resizable=0;points=[];" parent="tSnbwrxk9L4w9iT0h2Ao-15" vertex="1" connectable="0">
          <mxGeometry x="-0.1106" y="-2" relative="1" as="geometry">
            <mxPoint as="offset" />
          </mxGeometry>
        </mxCell>
        <mxCell id="tSnbwrxk9L4w9iT0h2Ao-18" style="edgeStyle=orthogonalEdgeStyle;rounded=0;orthogonalLoop=1;jettySize=auto;html=1;exitX=0.5;exitY=1;exitDx=0;exitDy=0;" parent="1" source="tSnbwrxk9L4w9iT0h2Ao-13" edge="1">
          <mxGeometry relative="1" as="geometry">
            <mxPoint x="422.41176470588243" y="460" as="targetPoint" />
            <Array as="points">
              <mxPoint x="422" y="420" />
              <mxPoint x="422" y="420" />
            </Array>
          </mxGeometry>
        </mxCell>
        <mxCell id="tSnbwrxk9L4w9iT0h2Ao-19" value="Yes" style="edgeLabel;html=1;align=center;verticalAlign=middle;resizable=0;points=[];" parent="tSnbwrxk9L4w9iT0h2Ao-18" vertex="1" connectable="0">
          <mxGeometry x="-0.461" y="-1" relative="1" as="geometry">
            <mxPoint y="1" as="offset" />
          </mxGeometry>
        </mxCell>
        <mxCell id="tSnbwrxk9L4w9iT0h2Ao-13" value="Is there a mouse button up event?" style="rhombus;whiteSpace=wrap;html=1;" parent="1" vertex="1">
          <mxGeometry x="360" y="280" width="125" height="130" as="geometry" />
        </mxCell>
        <mxCell id="tSnbwrxk9L4w9iT0h2Ao-22" style="edgeStyle=orthogonalEdgeStyle;rounded=0;orthogonalLoop=1;jettySize=auto;html=1;exitX=0.5;exitY=1;exitDx=0;exitDy=0;entryX=0.5;entryY=0;entryDx=0;entryDy=0;" parent="1" source="tSnbwrxk9L4w9iT0h2Ao-21" target="tSnbwrxk9L4w9iT0h2Ao-24" edge="1">
          <mxGeometry relative="1" as="geometry">
            <mxPoint x="422.49764705882353" y="580" as="targetPoint" />
          </mxGeometry>
        </mxCell>
        <mxCell id="tSnbwrxk9L4w9iT0h2Ao-21" value="squareUnderMouse()" style="shape=process;whiteSpace=wrap;html=1;backgroundOutline=1;" parent="1" vertex="1">
          <mxGeometry x="350" y="460" width="155" height="60" as="geometry" />
        </mxCell>
        <mxCell id="tSnbwrxk9L4w9iT0h2Ao-25" style="edgeStyle=orthogonalEdgeStyle;rounded=0;orthogonalLoop=1;jettySize=auto;html=1;exitX=0.5;exitY=1;exitDx=0;exitDy=0;" parent="1" source="tSnbwrxk9L4w9iT0h2Ao-24" edge="1">
          <mxGeometry relative="1" as="geometry">
            <mxPoint x="427.1176470588234" y="730" as="targetPoint" />
          </mxGeometry>
        </mxCell>
        <mxCell id="zBZ0H6l6l-4x_m-4qMEd-29" value="Yes" style="edgeLabel;html=1;align=center;verticalAlign=middle;resizable=0;points=[];" vertex="1" connectable="0" parent="tSnbwrxk9L4w9iT0h2Ao-25">
          <mxGeometry x="-0.0164" y="-2" relative="1" as="geometry">
            <mxPoint as="offset" />
          </mxGeometry>
        </mxCell>
        <mxCell id="tSnbwrxk9L4w9iT0h2Ao-26" style="edgeStyle=orthogonalEdgeStyle;rounded=0;orthogonalLoop=1;jettySize=auto;html=1;exitX=1;exitY=0.5;exitDx=0;exitDy=0;" parent="1" source="tSnbwrxk9L4w9iT0h2Ao-24" edge="1">
          <mxGeometry relative="1" as="geometry">
            <mxPoint x="530" y="615" as="targetPoint" />
          </mxGeometry>
        </mxCell>
        <mxCell id="zBZ0H6l6l-4x_m-4qMEd-25" value="No" style="edgeLabel;html=1;align=center;verticalAlign=middle;resizable=0;points=[];" vertex="1" connectable="0" parent="tSnbwrxk9L4w9iT0h2Ao-26">
          <mxGeometry x="-0.3286" y="-4" relative="1" as="geometry">
            <mxPoint as="offset" />
          </mxGeometry>
        </mxCell>
        <mxCell id="tSnbwrxk9L4w9iT0h2Ao-24" value="Is the move to play in the valid moves list?" style="rhombus;whiteSpace=wrap;html=1;" parent="1" vertex="1">
          <mxGeometry x="365" y="550" width="125" height="130" as="geometry" />
        </mxCell>
        <mxCell id="zBZ0H6l6l-4x_m-4qMEd-24" value="" style="group" vertex="1" connectable="0" parent="1">
          <mxGeometry x="900" y="-190" width="430" height="710" as="geometry" />
        </mxCell>
        <mxCell id="zBZ0H6l6l-4x_m-4qMEd-6" value="" style="group" vertex="1" connectable="0" parent="zBZ0H6l6l-4x_m-4qMEd-24">
          <mxGeometry x="30" width="360" height="202" as="geometry" />
        </mxCell>
        <mxCell id="zBZ0H6l6l-4x_m-4qMEd-4" value="" style="group" vertex="1" connectable="0" parent="zBZ0H6l6l-4x_m-4qMEd-6">
          <mxGeometry y="32" width="360" height="170" as="geometry" />
        </mxCell>
        <mxCell id="zBZ0H6l6l-4x_m-4qMEd-1" value="Return the file and rank for the square under the mouse" style="shape=process;whiteSpace=wrap;html=1;backgroundOutline=1;size=0.2777777777777778;" vertex="1" parent="zBZ0H6l6l-4x_m-4qMEd-4">
          <mxGeometry width="360" height="170" as="geometry" />
        </mxCell>
        <mxCell id="zBZ0H6l6l-4x_m-4qMEd-2" value="white_perspective" style="text;html=1;align=center;verticalAlign=middle;whiteSpace=wrap;rounded=0;" vertex="1" parent="zBZ0H6l6l-4x_m-4qMEd-4">
          <mxGeometry x="20" y="80" width="60" height="30" as="geometry" />
        </mxCell>
        <mxCell id="zBZ0H6l6l-4x_m-4qMEd-3" value="file, rank&lt;div&gt;&lt;br&gt;&lt;/div&gt;&lt;div&gt;(in the format x, y)&lt;/div&gt;" style="text;html=1;align=center;verticalAlign=middle;whiteSpace=wrap;rounded=0;" vertex="1" parent="zBZ0H6l6l-4x_m-4qMEd-4">
          <mxGeometry x="270" y="70" width="70" height="30" as="geometry" />
        </mxCell>
        <mxCell id="zBZ0H6l6l-4x_m-4qMEd-5" value="squareUnderMouse()" style="text;html=1;align=center;verticalAlign=middle;resizable=0;points=[];autosize=1;strokeColor=none;fillColor=none;" vertex="1" parent="zBZ0H6l6l-4x_m-4qMEd-6">
          <mxGeometry x="110" width="140" height="30" as="geometry" />
        </mxCell>
        <mxCell id="zBZ0H6l6l-4x_m-4qMEd-23" value="" style="group" vertex="1" connectable="0" parent="zBZ0H6l6l-4x_m-4qMEd-24">
          <mxGeometry y="220" width="430" height="490" as="geometry" />
        </mxCell>
        <mxCell id="zBZ0H6l6l-4x_m-4qMEd-10" style="edgeStyle=orthogonalEdgeStyle;rounded=0;orthogonalLoop=1;jettySize=auto;html=1;exitX=0.5;exitY=1;exitDx=0;exitDy=0;entryX=0.5;entryY=0;entryDx=0;entryDy=0;" edge="1" parent="zBZ0H6l6l-4x_m-4qMEd-23" source="zBZ0H6l6l-4x_m-4qMEd-8" target="zBZ0H6l6l-4x_m-4qMEd-9">
          <mxGeometry relative="1" as="geometry" />
        </mxCell>
        <mxCell id="zBZ0H6l6l-4x_m-4qMEd-8" value="Start" style="rounded=1;whiteSpace=wrap;html=1;" vertex="1" parent="zBZ0H6l6l-4x_m-4qMEd-23">
          <mxGeometry x="150" width="120" height="60" as="geometry" />
        </mxCell>
        <mxCell id="zBZ0H6l6l-4x_m-4qMEd-13" style="edgeStyle=orthogonalEdgeStyle;rounded=0;orthogonalLoop=1;jettySize=auto;html=1;exitX=0.5;exitY=1;exitDx=0;exitDy=0;" edge="1" parent="zBZ0H6l6l-4x_m-4qMEd-23" source="zBZ0H6l6l-4x_m-4qMEd-9" target="zBZ0H6l6l-4x_m-4qMEd-12">
          <mxGeometry relative="1" as="geometry" />
        </mxCell>
        <mxCell id="zBZ0H6l6l-4x_m-4qMEd-9" value="Get current mouse position" style="rounded=0;whiteSpace=wrap;html=1;" vertex="1" parent="zBZ0H6l6l-4x_m-4qMEd-23">
          <mxGeometry x="150" y="100" width="120" height="60" as="geometry" />
        </mxCell>
        <mxCell id="zBZ0H6l6l-4x_m-4qMEd-12" value="file, rank = mouse_pos.x // TILESIZE, mouse_pos.y //TILESIZE" style="rounded=0;whiteSpace=wrap;html=1;" vertex="1" parent="zBZ0H6l6l-4x_m-4qMEd-23">
          <mxGeometry x="30" y="190" width="360" height="40" as="geometry" />
        </mxCell>
        <mxCell id="zBZ0H6l6l-4x_m-4qMEd-18" style="edgeStyle=orthogonalEdgeStyle;rounded=0;orthogonalLoop=1;jettySize=auto;html=1;exitX=0;exitY=0.5;exitDx=0;exitDy=0;entryX=1;entryY=0.5;entryDx=0;entryDy=0;" edge="1" parent="zBZ0H6l6l-4x_m-4qMEd-23" source="zBZ0H6l6l-4x_m-4qMEd-15" target="zBZ0H6l6l-4x_m-4qMEd-16">
          <mxGeometry relative="1" as="geometry" />
        </mxCell>
        <mxCell id="zBZ0H6l6l-4x_m-4qMEd-19" style="edgeStyle=orthogonalEdgeStyle;rounded=0;orthogonalLoop=1;jettySize=auto;html=1;exitX=1;exitY=0.5;exitDx=0;exitDy=0;entryX=0;entryY=0.5;entryDx=0;entryDy=0;" edge="1" parent="zBZ0H6l6l-4x_m-4qMEd-23" source="zBZ0H6l6l-4x_m-4qMEd-15" target="zBZ0H6l6l-4x_m-4qMEd-17">
          <mxGeometry relative="1" as="geometry" />
        </mxCell>
        <mxCell id="zBZ0H6l6l-4x_m-4qMEd-15" value="Is white_perspective true?" style="rhombus;whiteSpace=wrap;html=1;" vertex="1" parent="zBZ0H6l6l-4x_m-4qMEd-23">
          <mxGeometry x="147.5" y="250" width="125" height="130" as="geometry" />
        </mxCell>
        <mxCell id="zBZ0H6l6l-4x_m-4qMEd-22" style="edgeStyle=orthogonalEdgeStyle;rounded=0;orthogonalLoop=1;jettySize=auto;html=1;exitX=0.5;exitY=1;exitDx=0;exitDy=0;entryX=0;entryY=0.5;entryDx=0;entryDy=0;" edge="1" parent="zBZ0H6l6l-4x_m-4qMEd-23" source="zBZ0H6l6l-4x_m-4qMEd-16" target="zBZ0H6l6l-4x_m-4qMEd-20">
          <mxGeometry relative="1" as="geometry" />
        </mxCell>
        <mxCell id="zBZ0H6l6l-4x_m-4qMEd-16" value="Return file, 7-rank" style="rounded=0;whiteSpace=wrap;html=1;" vertex="1" parent="zBZ0H6l6l-4x_m-4qMEd-23">
          <mxGeometry y="285" width="120" height="60" as="geometry" />
        </mxCell>
        <mxCell id="zBZ0H6l6l-4x_m-4qMEd-21" style="edgeStyle=orthogonalEdgeStyle;rounded=0;orthogonalLoop=1;jettySize=auto;html=1;exitX=0.5;exitY=1;exitDx=0;exitDy=0;entryX=1;entryY=0.5;entryDx=0;entryDy=0;" edge="1" parent="zBZ0H6l6l-4x_m-4qMEd-23" source="zBZ0H6l6l-4x_m-4qMEd-17" target="zBZ0H6l6l-4x_m-4qMEd-20">
          <mxGeometry relative="1" as="geometry" />
        </mxCell>
        <mxCell id="zBZ0H6l6l-4x_m-4qMEd-17" value="Retun 7-file, rank" style="rounded=0;whiteSpace=wrap;html=1;" vertex="1" parent="zBZ0H6l6l-4x_m-4qMEd-23">
          <mxGeometry x="310" y="285" width="120" height="60" as="geometry" />
        </mxCell>
        <mxCell id="zBZ0H6l6l-4x_m-4qMEd-20" value="End" style="rounded=1;whiteSpace=wrap;html=1;" vertex="1" parent="zBZ0H6l6l-4x_m-4qMEd-23">
          <mxGeometry x="152.5" y="430" width="120" height="60" as="geometry" />
        </mxCell>
        <mxCell id="zBZ0H6l6l-4x_m-4qMEd-55" style="edgeStyle=orthogonalEdgeStyle;rounded=0;orthogonalLoop=1;jettySize=auto;html=1;exitX=1;exitY=0.5;exitDx=0;exitDy=0;" edge="1" parent="1" source="zBZ0H6l6l-4x_m-4qMEd-26">
          <mxGeometry relative="1" as="geometry">
            <mxPoint x="710" y="622.2941176470588" as="targetPoint" />
          </mxGeometry>
        </mxCell>
        <mxCell id="zBZ0H6l6l-4x_m-4qMEd-26" value="selected piece position = position_lookup(old_square)" style="rounded=0;whiteSpace=wrap;html=1;" vertex="1" parent="1">
          <mxGeometry x="530" y="585" width="160" height="75" as="geometry" />
        </mxCell>
        <mxCell id="zBZ0H6l6l-4x_m-4qMEd-30" style="edgeStyle=orthogonalEdgeStyle;rounded=0;orthogonalLoop=1;jettySize=auto;html=1;exitX=0.5;exitY=1;exitDx=0;exitDy=0;" edge="1" parent="1" source="zBZ0H6l6l-4x_m-4qMEd-28">
          <mxGeometry relative="1" as="geometry">
            <mxPoint x="427.1176470588234" y="920" as="targetPoint" />
          </mxGeometry>
        </mxCell>
        <mxCell id="zBZ0H6l6l-4x_m-4qMEd-34" value="No" style="edgeLabel;html=1;align=center;verticalAlign=middle;resizable=0;points=[];" vertex="1" connectable="0" parent="zBZ0H6l6l-4x_m-4qMEd-30">
          <mxGeometry x="0.0205" y="2" relative="1" as="geometry">
            <mxPoint as="offset" />
          </mxGeometry>
        </mxCell>
        <mxCell id="zBZ0H6l6l-4x_m-4qMEd-31" style="edgeStyle=orthogonalEdgeStyle;rounded=0;orthogonalLoop=1;jettySize=auto;html=1;exitX=1;exitY=0.5;exitDx=0;exitDy=0;" edge="1" parent="1" source="zBZ0H6l6l-4x_m-4qMEd-28">
          <mxGeometry relative="1" as="geometry">
            <mxPoint x="550" y="795.2352941176473" as="targetPoint" />
          </mxGeometry>
        </mxCell>
        <mxCell id="zBZ0H6l6l-4x_m-4qMEd-32" value="Yes" style="edgeLabel;html=1;align=center;verticalAlign=middle;resizable=0;points=[];" vertex="1" connectable="0" parent="zBZ0H6l6l-4x_m-4qMEd-31">
          <mxGeometry x="-0.4361" y="-3" relative="1" as="geometry">
            <mxPoint x="-1" as="offset" />
          </mxGeometry>
        </mxCell>
        <mxCell id="zBZ0H6l6l-4x_m-4qMEd-28" value="Do any current pieces occupy that square?" style="rhombus;whiteSpace=wrap;html=1;" vertex="1" parent="1">
          <mxGeometry x="365" y="730" width="125" height="130" as="geometry" />
        </mxCell>
        <mxCell id="zBZ0H6l6l-4x_m-4qMEd-36" style="edgeStyle=orthogonalEdgeStyle;rounded=0;orthogonalLoop=1;jettySize=auto;html=1;exitX=0.5;exitY=1;exitDx=0;exitDy=0;entryX=1;entryY=0.5;entryDx=0;entryDy=0;" edge="1" parent="1" source="zBZ0H6l6l-4x_m-4qMEd-33" target="zBZ0H6l6l-4x_m-4qMEd-35">
          <mxGeometry relative="1" as="geometry" />
        </mxCell>
        <mxCell id="zBZ0H6l6l-4x_m-4qMEd-33" value="Remove that piece from pieces group" style="rounded=0;whiteSpace=wrap;html=1;" vertex="1" parent="1">
          <mxGeometry x="550" y="765" width="120" height="60" as="geometry" />
        </mxCell>
        <mxCell id="zBZ0H6l6l-4x_m-4qMEd-38" style="edgeStyle=orthogonalEdgeStyle;rounded=0;orthogonalLoop=1;jettySize=auto;html=1;exitX=0.5;exitY=1;exitDx=0;exitDy=0;" edge="1" parent="1" source="zBZ0H6l6l-4x_m-4qMEd-35" target="zBZ0H6l6l-4x_m-4qMEd-37">
          <mxGeometry relative="1" as="geometry" />
        </mxCell>
        <mxCell id="zBZ0H6l6l-4x_m-4qMEd-35" value="Set the position and square of the selected piece to the new square" style="rounded=0;whiteSpace=wrap;html=1;" vertex="1" parent="1">
          <mxGeometry x="370" y="920" width="120" height="60" as="geometry" />
        </mxCell>
        <mxCell id="zBZ0H6l6l-4x_m-4qMEd-40" style="edgeStyle=orthogonalEdgeStyle;rounded=0;orthogonalLoop=1;jettySize=auto;html=1;exitX=0.5;exitY=1;exitDx=0;exitDy=0;entryX=0.5;entryY=0;entryDx=0;entryDy=0;" edge="1" parent="1" source="zBZ0H6l6l-4x_m-4qMEd-37" target="zBZ0H6l6l-4x_m-4qMEd-39">
          <mxGeometry relative="1" as="geometry" />
        </mxCell>
        <mxCell id="zBZ0H6l6l-4x_m-4qMEd-37" value="Make that move on the board" style="rounded=0;whiteSpace=wrap;html=1;" vertex="1" parent="1">
          <mxGeometry x="370" y="1020" width="120" height="60" as="geometry" />
        </mxCell>
        <mxCell id="zBZ0H6l6l-4x_m-4qMEd-42" style="edgeStyle=orthogonalEdgeStyle;rounded=0;orthogonalLoop=1;jettySize=auto;html=1;exitX=0.5;exitY=1;exitDx=0;exitDy=0;" edge="1" parent="1" source="zBZ0H6l6l-4x_m-4qMEd-39" target="zBZ0H6l6l-4x_m-4qMEd-41">
          <mxGeometry relative="1" as="geometry" />
        </mxCell>
        <mxCell id="zBZ0H6l6l-4x_m-4qMEd-39" value="Append that move to the moves log" style="rounded=0;whiteSpace=wrap;html=1;" vertex="1" parent="1">
          <mxGeometry x="370" y="1110" width="120" height="60" as="geometry" />
        </mxCell>
        <mxCell id="zBZ0H6l6l-4x_m-4qMEd-45" style="edgeStyle=orthogonalEdgeStyle;rounded=0;orthogonalLoop=1;jettySize=auto;html=1;exitX=0.5;exitY=1;exitDx=0;exitDy=0;entryX=0.5;entryY=0;entryDx=0;entryDy=0;" edge="1" parent="1" source="zBZ0H6l6l-4x_m-4qMEd-41" target="zBZ0H6l6l-4x_m-4qMEd-44">
          <mxGeometry relative="1" as="geometry" />
        </mxCell>
        <mxCell id="zBZ0H6l6l-4x_m-4qMEd-41" value="colour_to_play ^= 24&lt;div&gt;(switches the colour to play)&lt;/div&gt;" style="rounded=0;whiteSpace=wrap;html=1;" vertex="1" parent="1">
          <mxGeometry x="370" y="1190" width="120" height="60" as="geometry" />
        </mxCell>
        <mxCell id="zBZ0H6l6l-4x_m-4qMEd-52" style="edgeStyle=orthogonalEdgeStyle;rounded=0;orthogonalLoop=1;jettySize=auto;html=1;exitX=0.5;exitY=1;exitDx=0;exitDy=0;" edge="1" parent="1" source="zBZ0H6l6l-4x_m-4qMEd-44" target="zBZ0H6l6l-4x_m-4qMEd-47">
          <mxGeometry relative="1" as="geometry" />
        </mxCell>
        <mxCell id="zBZ0H6l6l-4x_m-4qMEd-44" value="generateLegalMoves" style="shape=process;whiteSpace=wrap;html=1;backgroundOutline=1;" vertex="1" parent="1">
          <mxGeometry x="350" y="1270" width="160" height="60" as="geometry" />
        </mxCell>
        <mxCell id="zBZ0H6l6l-4x_m-4qMEd-49" style="edgeStyle=orthogonalEdgeStyle;rounded=0;orthogonalLoop=1;jettySize=auto;html=1;exitX=1;exitY=0.5;exitDx=0;exitDy=0;" edge="1" parent="1" source="zBZ0H6l6l-4x_m-4qMEd-47" target="zBZ0H6l6l-4x_m-4qMEd-48">
          <mxGeometry relative="1" as="geometry" />
        </mxCell>
        <mxCell id="zBZ0H6l6l-4x_m-4qMEd-50" value="Yes" style="edgeLabel;html=1;align=center;verticalAlign=middle;resizable=0;points=[];" vertex="1" connectable="0" parent="zBZ0H6l6l-4x_m-4qMEd-49">
          <mxGeometry x="-0.1735" relative="1" as="geometry">
            <mxPoint as="offset" />
          </mxGeometry>
        </mxCell>
        <mxCell id="zBZ0H6l6l-4x_m-4qMEd-53" style="edgeStyle=orthogonalEdgeStyle;rounded=0;orthogonalLoop=1;jettySize=auto;html=1;exitX=0.5;exitY=1;exitDx=0;exitDy=0;entryX=1;entryY=0.5;entryDx=0;entryDy=0;" edge="1" parent="1" source="zBZ0H6l6l-4x_m-4qMEd-47" target="tSnbwrxk9L4w9iT0h2Ao-7">
          <mxGeometry relative="1" as="geometry">
            <mxPoint x="780" y="900" as="targetPoint" />
            <Array as="points">
              <mxPoint x="430" y="1510" />
              <mxPoint x="710" y="1510" />
              <mxPoint x="710" y="95" />
            </Array>
          </mxGeometry>
        </mxCell>
        <mxCell id="zBZ0H6l6l-4x_m-4qMEd-47" value="Is the generated legal moves list empty?" style="rhombus;whiteSpace=wrap;html=1;" vertex="1" parent="1">
          <mxGeometry x="362.5" y="1350" width="135" height="140" as="geometry" />
        </mxCell>
        <mxCell id="zBZ0H6l6l-4x_m-4qMEd-48" value="Exit game&lt;div&gt;(checkmate)&lt;/div&gt;" style="rounded=0;whiteSpace=wrap;html=1;" vertex="1" parent="1">
          <mxGeometry x="540" y="1390" width="120" height="60" as="geometry" />
        </mxCell>
        <mxCell id="zBZ0H6l6l-4x_m-4qMEd-56" value="" style="endArrow=classic;html=1;rounded=0;entryX=0.5;entryY=0;entryDx=0;entryDy=0;" edge="1" parent="1" target="j4HEFnZdlxxGRdM0LMkN-3">
          <mxGeometry width="50" height="50" relative="1" as="geometry">
            <mxPoint x="-67" y="-60" as="sourcePoint" />
            <mxPoint x="-30" y="-120" as="targetPoint" />
          </mxGeometry>
        </mxCell>
      </root>
    </mxGraphModel>
  </diagram>
  <diagram id="MpfyHeQGZ6Uqk9ZWa3Q-" name="Page-2">
    <mxGraphModel grid="1" page="1" gridSize="10" guides="1" tooltips="1" connect="1" arrows="1" fold="1" pageScale="1" pageWidth="850" pageHeight="1100" math="0" shadow="0">
      <root>
        <mxCell id="0" />
        <mxCell id="1" parent="0" />
      </root>
    </mxGraphModel>
  </diagram>
</mxfile>
